<?xml version="1.0" encoding="UTF-8" standalone="no"?><svg xmlns="http://www.w3.org/2000/svg" xmlns:xlink="http://www.w3.org/1999/xlink" style="isolation:isolate" viewBox="0 0 1080 1080" width="1080pt" height="1080pt"><defs><clipPath id="_clipPath_MfgYAaSpMTM3FxYuI2ErMINgkLJWOkaz"><rect width="1080" height="1080"/></clipPath></defs><g clip-path="url(#_clipPath_MfgYAaSpMTM3FxYuI2ErMINgkLJWOkaz)"><rect width="1080" height="1080" style="fill:rgb(0,0,0)" fill-opacity="0"/><path d=" M 540 46.5 C 260.563 46.5 34.029 273.034 34.029 552.471 C 34.029 775.971 179.026 965.619 380.079 1032.597 C 405.317 1037.208 414.539 1021.677 414.539 1008.208 C 414.539 996.196 414.175 964.406 413.932 922.181 C 273.182 952.758 243.455 854.354 243.455 854.354 C 220.401 795.871 187.277 780.34 187.277 780.34 C 141.29 748.914 190.795 749.52 190.795 749.52 C 241.514 753.16 268.208 801.695 268.208 801.695 C 313.345 878.986 386.753 856.66 415.509 843.677 C 420.12 811.037 433.224 788.712 447.663 776.093 C 335.306 763.352 217.125 719.914 217.125 526.019 C 217.125 470.812 236.903 425.675 269.3 390.245 C 264.082 377.504 246.61 326.058 274.153 256.29 C 274.153 256.29 316.742 242.7 413.325 308.222 C 453.73 296.937 497.047 291.356 540 291.113 C 582.953 291.356 626.27 296.937 666.675 308.222 C 763.258 242.7 805.726 256.29 805.726 256.29 C 833.269 326.058 815.918 377.504 810.7 390.245 C 843.097 425.675 862.753 470.812 862.753 526.019 C 862.753 720.4 744.451 763.231 631.73 775.729 C 649.93 791.381 666.068 822.2 666.068 869.4 C 666.068 936.984 665.461 991.585 665.461 1008.208 C 665.461 1021.798 674.561 1037.45 700.285 1032.597 C 901.096 965.498 1045.971 775.971 1045.971 552.471 C 1045.971 273.034 819.437 46.5 540 46.5 Z " fill-rule="evenodd" fill="rgb(255,255,255)"/></g></svg>